<?xml version="1.0" encoding="UTF-8" standalone="no"?>
<svg
   xmlns:dc="http://purl.org/dc/elements/1.1/"
   xmlns:cc="http://creativecommons.org/ns#"
   xmlns:rdf="http://www.w3.org/1999/02/22-rdf-syntax-ns#"
   xmlns:svg="http://www.w3.org/2000/svg"
   xmlns="http://www.w3.org/2000/svg"
   xmlns:sodipodi="http://sodipodi.sourceforge.net/DTD/sodipodi-0.dtd"
   xmlns:inkscape="http://www.inkscape.org/namespaces/inkscape"
   width="50.00005mm"
   height="50.000061mm"
   viewBox="0 0 50.00005 50.000061"
   version="1.1"
   id="svg1357"
   inkscape:version="1.0.2 (e86c870879, 2021-01-15)"
   sodipodi:docname="logo.svg">
  <defs
     id="defs1351" />
  <sodipodi:namedview
     id="base"
     pagecolor="#ffffff"
     bordercolor="#666666"
     borderopacity="1.0"
     inkscape:pageopacity="0.0"
     inkscape:pageshadow="2"
     inkscape:zoom="1.979899"
     inkscape:cx="119.83658"
     inkscape:cy="100.38665"
     inkscape:document-units="mm"
     inkscape:current-layer="layer1"
     inkscape:document-rotation="0"
     showgrid="false"
     fit-margin-top="0"
     fit-margin-left="0"
     fit-margin-right="0"
     fit-margin-bottom="0"
     inkscape:window-width="1716"
     inkscape:window-height="1400"
     inkscape:window-x="1720"
     inkscape:window-y="18"
     inkscape:window-maximized="1" />
  <metadata
     id="metadata1354">
    <rdf:RDF>
      <cc:Work
         rdf:about="">
        <dc:format>image/svg+xml</dc:format>
        <dc:type
           rdf:resource="http://purl.org/dc/dcmitype/StillImage" />
        <dc:title></dc:title>
      </cc:Work>
    </rdf:RDF>
  </metadata>
  <g
     inkscape:label="Layer 1"
     inkscape:groupmode="layer"
     id="layer1"
     transform="translate(95.303595,6.1012209)">
    <path
       id="circle962"
       style="fill:#80b3ff;fill-opacity:1;stroke-width:1.00512"
       d="m -70.303569,-6.1012209 a 24.999999,24.999999 0 0 0 -25.000026,25.0000239 24.999999,24.999999 0 0 0 5.737119,15.934944 50,50 0 0 1 35.198367,-35.19785039 24.999999,24.999999 0 0 0 -15.93546,-5.73711751 z m 17.164844,6.8238729 a 24.999999,24.999999 0 0 1 0.121438,0.1157552 24.999999,24.999999 0 0 0 -0.121438,-0.1157552 z m 0.887283,0.8815999 a 50,50 0 0 0 -35.346679,35.3471961 24.999999,24.999999 0 0 0 4.208012,3.248379 49.999952,50 0 0 1 34.387565,-34.3875633 24.999999,24.999999 0 0 0 -3.24838,-4.2080118 24.999999,24.999999 0 0 0 -5.29e-4,0 z m 3.333647,4.3470213 a 24.999999,24.999999 0 0 1 0.111103,0.1855184 24.999999,24.999999 0 0 0 -0.111103,-0.1855184 z m 0.220659,0.3720703 a 24.999999,24.999999 0 0 1 0.108003,0.1875856 24.999999,24.999999 0 0 0 -0.108003,-0.1875856 z m 0.912604,1.7187581 a 49.999952,50 0 0 0 -33.37574,33.3762564 24.999999,24.999999 0 0 0 4.748549,1.722377 49.999952,50 0 0 1 30.350084,-30.350086 24.999999,24.999999 0 0 0 -1.722893,-4.7485474 z m 2.227254,7.3080814 a 49.999952,50 0 0 0 -28.294911,28.294914 49.999952,50 0 0 0 0,5.29e-4 24.999999,24.999999 0 0 0 3.54862,0.253214 24.999999,24.999999 0 0 0 25.000024,-25.000024 24.999999,24.999999 0 0 0 -0.253733,-3.54862 z m -43.443341,20.14399 a 24.999999,24.999999 0 0 0 0.141075,0.157612 24.999999,24.999999 0 0 1 -0.141075,-0.157612 z m 0.296621,0.328144 a 24.999999,24.999999 0 0 0 0.127125,0.137459 24.999999,24.999999 0 0 1 -0.127125,-0.137459 z m 0.892453,0.921909 a 24.999999,24.999999 0 0 0 0.15503,0.150895 24.999999,24.999999 0 0 1 -0.15503,-0.150895 z m 4.432287,3.462319 a 24.999999,24.999999 0 0 0 0.151413,0.09199 24.999999,24.999999 0 0 1 -0.151413,-0.09199 z m 0.546222,0.325562 a 24.999999,24.999999 0 0 0 0.162779,0.09353 24.999999,24.999999 0 0 1 -0.162779,-0.09353 z m 0.565856,0.31781 a 24.999999,24.999999 0 0 0 0.183967,0.09974 24.999999,24.999999 0 0 1 -0.183967,-0.09974 z m 0.193786,0.104904 a 24.999999,24.999999 0 0 0 0.15348,0.08113 24.999999,24.999999 0 0 1 -0.15348,-0.08113 z m 0.210323,0.110588 a 24.999999,24.999999 0 0 0 0.146761,0.07648 24.999999,24.999999 0 0 1 -0.146761,-0.07648 z m 5.509225,2.090312 a 24.999999,24.999999 0 0 0 0.130225,0.03204 24.999999,24.999999 0 0 1 -0.130225,-0.03204 z m 1.703771,0.362251 a 24.999999,24.999999 0 0 0 0.126609,0.02222 24.999999,24.999999 0 0 1 -0.126609,-0.02222 z" />
    <path
       id="rect1255"
       style="fill:#c87137;fill-opacity:1;stroke-width:2.12142"
       d="m -82.645968,14.040702 c -0.255619,0 -0.511064,0.09817 -0.706935,0.294039 l -5.657019,5.657019 c -0.391737,0.391736 -0.391737,1.022133 0,1.413867 l 3.372921,3.372921 a 50,50 0 0 1 5.619814,-8.522478 l -1.92133,-1.921329 c -0.195871,-0.195868 -0.451832,-0.294039 -0.707451,-0.294039 z m 4.628658,4.215246 a 50,50 0 0 0 -5.619811,8.522477 l 4.000272,4.000273 a 49.999952,50 0 0 1 5.619811,-8.522478 z m 6.000668,6.000667 a 49.999952,50 0 0 0 -5.619814,8.521962 l 3.999241,3.999754 a 49.999952,50 0 0 1 5.619811,-8.522475 z m 6.000149,6.000152 a 49.999952,50 0 0 0 -5.620329,8.521959 l 4.868955,4.868437 a 24.999999,24.999999 0 0 0 10.248987,-3.892786 z" />
    <path
       id="rect1257"
       style="fill:#deaa87;fill-opacity:1;stroke-width:2.22497"
       d="m -79.110267,3.4341141 c -0.255619,0 -0.511064,0.098171 -0.706932,0.2940392 l -5.657019,5.6570188 c -0.39174,0.3917355 -0.39174,1.0221319 0,1.4138669 l 5.457031,5.457031 a 50,50 0 0 1 7.071402,-7.0703688 l -5.45755,-5.4575479 c -0.195868,-0.1958679 -0.451313,-0.2940392 -0.706932,-0.2940392 z m 8.164359,7.7514649 a 50,50 0 0 0 -7.071402,7.070369 l 4.000272,4.000272 a 49.999952,50 0 0 1 7.070886,-7.070885 z m 6.000152,5.999634 a 49.999952,50 0 0 0 -7.070886,7.071402 l 3.999238,3.999241 a 49.999952,50 0 0 1 7.071402,-7.070886 z m 5.999633,6.000149 a 49.999952,50 0 0 0 -7.07037,7.071405 l 9.497613,9.49761 a 24.999999,24.999999 0 0 0 7.071402,-7.07037 z" />
    <path
       id="rect1259"
       style="fill:#ffe6d5;fill-opacity:1;stroke-width:2.12142"
       d="m -68.50368,-0.10107052 c -0.255619,0 -0.511063,0.09765453 -0.706932,0.29352213 l -5.657019,5.65701909 c -0.391739,0.3917355 -0.391739,1.0226482 0,1.4143839 l 1.921846,1.9218466 a 50,50 0 0 1 8.521959,-5.6203289 l -3.372919,-3.37292069 c -0.195871,-0.1958676 -0.451315,-0.29352213 -0.706935,-0.29352213 z m 6.079734,5.66632082 a 50,50 0 0 0 -8.521962,5.6203287 l 3.999756,3.999756 a 49.999952,50 0 0 1 8.522478,-5.619812 z m 6.000665,6.0006677 a 49.999952,50 0 0 0 -8.522475,5.619295 l 3.999754,3.999757 a 49.999952,50 0 0 1 8.522478,-5.619297 z m 6.000152,5.999633 a 49.999952,50 0 0 0 -8.522994,5.619811 l 9.498645,9.498645 a 24.999999,24.999999 0 0 0 3.89227,-10.250019 z" />
    <path
       id="rect1268"
       style="fill:#80b3ff;fill-opacity:1;stroke-width:2.12142"
       d="M -64.423307,3.5658891 A 50,50 0 0 0 -85.637001,24.778548 l 2.000396,2.000393 A 50,50 0 0 1 -62.42343,5.565767 Z" />
    <path
       id="rect1284"
       style="fill:#80b3ff;fill-opacity:1;stroke-width:2.12142"
       d="m -52.423524,15.565673 a 49.999952,50 0 0 0 -21.213175,21.212658 l 2.000395,2.000395 a 49.999952,50 0 0 1 21.213175,-21.213175 z" />
    <path
       id="path1291"
       style="fill:#80b3ff;fill-opacity:1;stroke-width:2.12142"
       d="m -58.423674,9.565523 a 49.999952,50 0 0 0 -21.213175,21.213175 l 2.000393,2.000395 a 49.999952,50 0 0 1 21.213175,-21.213175 z" />
  </g>
</svg>
